#N canvas 2087 463 688 580 10;
#X obj 32 189 soundfiler;
#X obj -55 216 expr $f1*$f2/64;
#X msg -55 243 list \$1 11025;
#X obj 247 76 loadbang;
#X msg 32 145 list /home/ccrma/methuselah/samples/manydrops.wav
;
#X msg 32 167 read -resize \$1 dropletTable;
#X obj 66 217 table dropletTable;
#X obj -53 273 tabplay~ dropletTable;
#X obj -55 59 inlet;
#X text -59 28 cell coordinates i \, j;
#X obj -55 83 expr $f1*8+$f2;
#X obj -54 299 *~ 0.2;
#X obj -53 357 outlet~;
#X connect 0 0 1 1;
#X connect 1 0 2 0;
#X connect 2 0 7 0;
#X connect 3 0 4 0;
#X connect 4 0 5 0;
#X connect 5 0 0 0;
#X connect 7 0 11 0;
#X connect 8 0 10 0;
#X connect 10 0 1 0;
#X connect 11 0 12 0;
