#N canvas 2339 505 735 496 10;
#X obj 236 80 inlet;
#X obj 57 295 dac~;
#X obj 236 140 route 0 1 2 3 4 5 6 7;
#X obj 56 261 sampler;
#X obj 56 241 / 8;
#X obj 117 345 dac~;
#X obj 116 311 sampler;
#X obj 116 291 / 8;
#X obj 177 395 dac~;
#X obj 176 361 sampler;
#X obj 176 341 / 8;
#X obj 237 445 dac~;
#X obj 236 411 sampler;
#X obj 236 391 / 8;
#X obj 357 295 dac~;
#X obj 356 261 sampler;
#X obj 356 241 / 8;
#X obj 417 345 dac~;
#X obj 416 311 sampler;
#X obj 416 291 / 8;
#X obj 477 395 dac~;
#X obj 476 361 sampler;
#X obj 476 341 / 8;
#X obj 537 445 dac~;
#X obj 536 411 sampler;
#X obj 536 391 / 8;
#X connect 0 0 2 0;
#X connect 2 0 4 0;
#X connect 2 1 7 0;
#X connect 2 2 10 0;
#X connect 2 3 13 0;
#X connect 2 4 16 0;
#X connect 2 5 19 0;
#X connect 2 7 22 0;
#X connect 2 8 25 0;
#X connect 3 0 1 0;
#X connect 3 1 1 1;
#X connect 4 0 3 0;
#X connect 6 0 5 0;
#X connect 6 1 5 1;
#X connect 7 0 6 0;
#X connect 9 0 8 0;
#X connect 9 1 8 1;
#X connect 10 0 9 0;
#X connect 12 0 11 0;
#X connect 12 1 11 1;
#X connect 13 0 12 0;
#X connect 15 0 14 0;
#X connect 15 1 14 1;
#X connect 16 0 15 0;
#X connect 18 0 17 0;
#X connect 18 1 17 1;
#X connect 19 0 18 0;
#X connect 21 0 20 0;
#X connect 21 1 20 1;
#X connect 22 0 21 0;
#X connect 24 0 23 0;
#X connect 24 1 23 1;
#X connect 25 0 24 0;
