#N canvas 373 148 990 592 10;
#X obj 27 241 sampler;
#X obj 28 275 dac~;
#X msg 120 214 /home/ccrma/methuselah/samples/koto/c3.wav
;
#X obj 191 113 route 0 1 2 3 4 5 6 7;
#X obj 147 271 sampler;
#X obj 148 305 dac~;
#X obj 281 302 sampler;
#X obj 282 336 dac~;
#X obj 401 332 sampler;
#X obj 402 366 dac~;
#X obj 77 421 sampler;
#X obj 78 455 dac~;
#X obj 197 451 sampler;
#X obj 198 485 dac~;
#X obj 331 482 sampler;
#X obj 332 516 dac~;
#X obj 451 512 sampler;
#X obj 452 546 dac~;
#X msg 240 244 /home/ccrma/methuselah/samples/koto/d3.wav
;
#X msg 374 275 /home/ccrma/methuselah/samples/koto/e3.wav
;
#X msg 494 305 /home/ccrma/methuselah/samples/koto/g3.wav
;
#X msg 170 394 /home/ccrma/methuselah/samples/koto/a3.wav
;
#X msg 290 424 /home/ccrma/methuselah/samples/koto/c4.wav
;
#X msg 424 455 /home/ccrma/methuselah/samples/koto/d4.wav
;
#X msg 544 485 /home/ccrma/methuselah/samples/koto/e4.wav
;
#X obj 780 77 loadbang;
#X obj 191 85 inlet;
#X obj 27 212 / 32;
#X obj 147 242 / 32;
#X obj 77 392 / 32;
#X obj 196 422 / 32;
#X obj 331 453 / 32;
#X obj 451 483 / 32;
#X obj 281 273 / 32;
#X obj 401 303 / 32;
#X connect 0 0 1 0;
#X connect 2 0 0 1;
#X connect 3 0 27 0;
#X connect 3 1 28 0;
#X connect 3 2 33 0;
#X connect 3 3 34 0;
#X connect 3 4 29 0;
#X connect 3 5 30 0;
#X connect 3 6 31 0;
#X connect 3 7 32 0;
#X connect 4 0 5 0;
#X connect 6 0 7 0;
#X connect 8 0 9 0;
#X connect 10 0 11 0;
#X connect 12 0 13 0;
#X connect 14 0 15 0;
#X connect 16 0 17 0;
#X connect 18 0 4 1;
#X connect 19 0 6 1;
#X connect 20 0 8 1;
#X connect 21 0 10 1;
#X connect 22 0 12 1;
#X connect 23 0 14 1;
#X connect 24 0 16 1;
#X connect 25 0 2 0;
#X connect 25 0 18 0;
#X connect 25 0 19 0;
#X connect 25 0 20 0;
#X connect 25 0 21 0;
#X connect 25 0 22 0;
#X connect 25 0 23 0;
#X connect 25 0 24 0;
#X connect 26 0 3 0;
#X connect 27 0 0 0;
#X connect 28 0 4 0;
#X connect 29 0 10 0;
#X connect 30 0 12 0;
#X connect 31 0 14 0;
#X connect 32 0 16 0;
#X connect 33 0 6 0;
#X connect 34 0 8 0;
