#N canvas 3088 362 701 584 10;
#X declare -lib mrpeach;
#X obj 414 52 import mrpeach;
#X obj 82 59 unpackOSC;
#X obj 82 40 udpreceive 9000;
#X obj 82 81 routeOSC /rule1 /rule2 /rule3 /input;
#X obj 242 418 dac~;
#X obj 241 351 fmpoly6;
#X obj 241 211 unpack f f;
#X obj 241 317 pack f f;
#X obj 241 269 t f b;
#X obj 4 129 print info;
#X obj 277 240 expr $f1*100+30;
#X floatatom 281 163 5 0 0 0 - - -;
#X msg 332 194 200;
#X obj 263 386 bp~ 100 10;
#X obj 331 273 vsl 15 100 0 500 0 0 empty empty empty 0 -9 0 10 -262144
-1 -1 9900 1;
#X msg 276 291 0.3;
#X obj 241 241 + 30;
#X obj 82 221 drumkit;
#X connect 1 0 3 0;
#X connect 1 0 9 0;
#X connect 2 0 1 0;
#X connect 3 2 17 0;
#X connect 3 3 6 0;
#X connect 5 0 13 0;
#X connect 6 0 16 0;
#X connect 6 1 10 0;
#X connect 7 0 5 0;
#X connect 8 0 7 0;
#X connect 8 1 15 0;
#X connect 10 0 5 4;
#X connect 11 0 5 1;
#X connect 12 0 5 2;
#X connect 13 0 4 0;
#X connect 13 0 4 1;
#X connect 14 0 13 1;
#X connect 15 0 7 1;
#X connect 16 0 8 0;
