#N canvas 522 128 701 584 10;
#X declare -lib mrpeach;
#X obj 414 52 import mrpeach;
#X obj 82 59 unpackOSC;
#X obj 82 40 udpreceive 9000;
#X obj 82 81 routeOSC /rule1 /rule2 /rule3 /input;
#X obj 319 498 dac~;
#X obj 318 471 fmpoly6;
#X obj 318 331 unpack f f;
#X obj 318 437 pack f f;
#X obj 318 389 t f b;
#X obj 1 77 print info;
#X obj 354 360 expr $f1*100+30;
#X msg 353 411 0.3;
#X obj 579 41 loadbang;
#X obj 579 62 delay 100;
#X msg 579 86 \; pd dsp 1;
#X obj 229 428 dac~;
#X obj 228 401 fmpoly6;
#X obj 228 261 unpack f f;
#X obj 228 367 pack f f;
#X obj 228 319 t f b;
#X obj 264 290 expr $f1*100+30;
#X msg 263 341 0.3;
#X obj 89 398 dac~;
#X obj 88 371 fmpoly6;
#X obj 88 231 unpack f f;
#X obj 88 337 pack f f;
#X obj 88 289 t f b;
#X obj 124 260 expr $f1*100+30;
#X msg 123 311 0.3;
#X obj -1 328 dac~;
#X obj -2 301 fmpoly6;
#X obj -2 161 unpack f f;
#X obj -2 267 pack f f;
#X obj -2 219 t f b;
#X obj 34 190 expr $f1*100+30;
#X msg 33 241 0.3;
#X obj -2 191 + 30;
#X obj 88 261 + 40;
#X obj 228 291 + 50;
#X obj 318 361 + 60;
#X msg 365 159 5;
#X msg 445 187 700;
#X connect 1 0 3 0;
#X connect 1 0 9 0;
#X connect 2 0 1 0;
#X connect 3 0 31 0;
#X connect 3 1 24 0;
#X connect 3 2 17 0;
#X connect 3 3 6 0;
#X connect 5 0 4 0;
#X connect 6 0 39 0;
#X connect 6 1 10 0;
#X connect 7 0 5 0;
#X connect 8 0 7 0;
#X connect 8 1 11 0;
#X connect 10 0 5 4;
#X connect 11 0 7 1;
#X connect 12 0 13 0;
#X connect 12 0 40 0;
#X connect 12 0 41 0;
#X connect 13 0 14 0;
#X connect 16 0 15 0;
#X connect 17 0 38 0;
#X connect 17 1 20 0;
#X connect 18 0 16 0;
#X connect 19 0 18 0;
#X connect 19 1 21 0;
#X connect 20 0 16 4;
#X connect 21 0 18 1;
#X connect 23 0 22 0;
#X connect 24 0 37 0;
#X connect 24 1 27 0;
#X connect 25 0 23 0;
#X connect 26 0 25 0;
#X connect 26 1 28 0;
#X connect 27 0 23 4;
#X connect 28 0 25 1;
#X connect 30 0 29 0;
#X connect 31 0 36 0;
#X connect 31 1 34 0;
#X connect 32 0 30 0;
#X connect 33 0 32 0;
#X connect 33 1 35 0;
#X connect 34 0 30 4;
#X connect 35 0 32 1;
#X connect 36 0 33 0;
#X connect 37 0 26 0;
#X connect 38 0 19 0;
#X connect 39 0 8 0;
#X connect 40 0 30 1;
#X connect 40 0 16 1;
#X connect 40 0 23 1;
#X connect 40 0 5 1;
#X connect 41 0 30 2;
#X connect 41 0 23 2;
#X connect 41 0 16 2;
#X connect 41 0 5 2;
