#N canvas 343 156 701 584 10;
#X declare -lib mrpeach;
#X obj 344 42 import mrpeach;
#X obj 82 59 unpackOSC;
#X obj 82 40 udpreceive 9000;
#X obj 82 81 routeOSC /rule1 /rule2 /rule3 /input;
#X obj 549 51 loadbang;
#X obj 549 72 delay 100;
#X msg 549 96 \; pd dsp 1;
#X obj 82 116 droplets;
#X obj 135 143 ambience;
#X obj 135 256 cpdelay~;
#X obj 136 306 dac~;
#X msg 180 233 0.4;
#X msg 157 212 250;
#X obj 83 136 *~ 0.4;
#X obj 199 191 loadbang;
#X obj 136 164 *~ 0.2;
#X obj 381 221 koto;
#X connect 1 0 3 0;
#X connect 2 0 1 0;
#X connect 3 0 7 0;
#X connect 3 1 8 0;
#X connect 3 3 16 0;
#X connect 4 0 5 0;
#X connect 5 0 6 0;
#X connect 7 0 13 0;
#X connect 8 0 15 0;
#X connect 9 0 10 0;
#X connect 11 0 9 2;
#X connect 12 0 9 1;
#X connect 13 0 9 0;
#X connect 14 0 12 0;
#X connect 14 0 11 0;
#X connect 15 0 9 0;
