#N canvas 2158 376 990 592 10;
#X obj 27 241 sampler;
#X obj 28 275 dac~;
#X msg 120 214 /home/ccrma/methuselah/samples/koto/c3.wav
;
#X obj 27 212 / 64;
#X obj 191 113 route 0 1 2 3 4 5 6 7;
#X obj 147 271 sampler;
#X obj 148 305 dac~;
#X obj 147 242 / 64;
#X obj 281 302 sampler;
#X obj 282 336 dac~;
#X obj 281 273 / 64;
#X obj 401 332 sampler;
#X obj 402 366 dac~;
#X obj 401 303 / 64;
#X obj 77 421 sampler;
#X obj 78 455 dac~;
#X obj 77 392 / 64;
#X obj 197 451 sampler;
#X obj 198 485 dac~;
#X obj 197 422 / 64;
#X obj 331 482 sampler;
#X obj 332 516 dac~;
#X obj 331 453 / 64;
#X obj 451 512 sampler;
#X obj 452 546 dac~;
#X obj 451 483 / 64;
#X msg 240 244 /home/ccrma/methuselah/samples/koto/d3.wav
;
#X msg 374 275 /home/ccrma/methuselah/samples/koto/e3.wav
;
#X msg 494 305 /home/ccrma/methuselah/samples/koto/g3.wav
;
#X msg 170 394 /home/ccrma/methuselah/samples/koto/a3.wav
;
#X msg 290 424 /home/ccrma/methuselah/samples/koto/c4.wav
;
#X msg 424 455 /home/ccrma/methuselah/samples/koto/d4.wav
;
#X msg 544 485 /home/ccrma/methuselah/samples/koto/e4.wav
;
#X obj 780 77 loadbang;
#X obj 191 85 inlet;
#X connect 0 0 1 0;
#X connect 2 0 0 1;
#X connect 3 0 0 0;
#X connect 4 0 3 0;
#X connect 4 1 7 0;
#X connect 4 2 10 0;
#X connect 4 3 13 0;
#X connect 4 4 16 0;
#X connect 4 5 19 0;
#X connect 4 6 22 0;
#X connect 4 7 25 0;
#X connect 5 0 6 0;
#X connect 7 0 5 0;
#X connect 8 0 9 0;
#X connect 10 0 8 0;
#X connect 11 0 12 0;
#X connect 13 0 11 0;
#X connect 14 0 15 0;
#X connect 16 0 14 0;
#X connect 17 0 18 0;
#X connect 19 0 17 0;
#X connect 20 0 21 0;
#X connect 22 0 20 0;
#X connect 23 0 24 0;
#X connect 25 0 23 0;
#X connect 26 0 5 1;
#X connect 27 0 8 1;
#X connect 28 0 11 1;
#X connect 29 0 14 1;
#X connect 30 0 17 1;
#X connect 31 0 20 1;
#X connect 32 0 23 1;
#X connect 33 0 2 0;
#X connect 33 0 26 0;
#X connect 33 0 27 0;
#X connect 33 0 28 0;
#X connect 33 0 29 0;
#X connect 33 0 30 0;
#X connect 33 0 31 0;
#X connect 33 0 32 0;
#X connect 34 0 4 0;
